<?xml version="1.0" encoding="utf-8"?>
<!-- Generator: Adobe Illustrator 21.0.2, SVG Export Plug-In . SVG Version: 6.00 Build 0)  -->
<svg version="1.1" id="Layer_1" xmlns="http://www.w3.org/2000/svg" xmlns:xlink="http://www.w3.org/1999/xlink" x="0px" y="0px"
	 viewBox="0 0 30 30" style="enable-background:new 0 0 30 30;" xml:space="preserve">
<path d="M27.8,30h-5.5C21,30,20,29,20,27.8V2.2C20,1,21,0,22.3,0h5.5C29,0,30,1,30,2.2v25.6C30,29,29,30,27.8,30z"/>
<path d="M7.7,30H2.2C1,30,0,29,0,27.8V2.2C0,1,1,0,2.2,0h5.5C9,0,9.9,1,9.9,2.2v25.6C9.9,29,9,30,7.7,30z"/>
</svg>
