<?xml version="1.0" encoding="utf-8"?>
<!-- Generator: Adobe Illustrator 21.0.2, SVG Export Plug-In . SVG Version: 6.00 Build 0)  -->
<svg version="1.1" id="Layer_1" xmlns="http://www.w3.org/2000/svg" xmlns:xlink="http://www.w3.org/1999/xlink" x="0px" y="0px"
	 viewBox="0 0 42 47" style="enable-background:new 0 0 42 47;" xml:space="preserve">
<g>
	<g>
		<path d="M28.3,7c0.4,0,0.8,0,1.1,0C29.7,7,30,7,30.3,7.1c1.8,0.3,3.3,1.1,4.5,2.4c0.1,0.1,0.2,0.1,0.3,0.1
			c1.5-0.3,2.9-0.8,4.2-1.5c0.3-0.2,0.6-0.3,0.9-0.5c-0.6,2-1.8,3.5-3.5,4.6c1.6-0.2,3.2-0.6,4.7-1.3c0,0.1-0.1,0.2-0.1,0.2
			c-1.1,1.5-2.3,2.8-3.8,4c-0.1,0.1-0.1,0.2-0.1,0.3c0,1,0,2.1-0.1,3.1c-0.2,1.7-0.5,3.5-1.1,5.1c-1.4,4.4-3.9,8.1-7.4,11.1
			c-2.2,1.8-4.6,3.2-7.4,4.1c-2.8,0.9-5.6,1.3-8.6,1.2c-1,0-2-0.1-2.9-0.3c-3.2-0.5-6.1-1.6-8.9-3.3c-0.1,0-0.1-0.1-0.2-0.1
			c2.2,0.2,4.4,0.1,6.5-0.5c2.1-0.6,4-1.6,5.8-2.9c-1.7-0.1-3.2-0.5-4.5-1.5c-1.5-1-2.6-2.4-3.2-4.2c0-0.1-0.1-0.2,0.1-0.2
			c0.9,0.2,1.8,0.2,2.7,0c0.3,0,0.5-0.1,0.8-0.2c-0.1,0-0.1,0-0.2-0.1c-2.6-0.7-4.5-2.2-5.7-4.6c-0.5-1.1-0.8-2.3-0.8-3.5
			c0-0.1,0-0.2,0.1-0.1c1,0.5,2,0.8,3.1,0.9c0.2,0,0.3,0,0.5,0c0-0.1-0.1-0.1-0.1-0.1c-1.3-0.9-2.2-2.1-2.8-3.5
			c-0.6-1.3-0.7-2.7-0.6-4.1c0.1-1.1,0.4-2.2,1-3.2c0-0.1,0.1-0.2,0.2,0c0.8,1,1.8,2,2.8,2.9C8,12.9,9.8,14,11.7,15
			c2.8,1.3,5.7,2.1,8.8,2.2c0.2,0,0.2,0,0.2-0.2c-0.2-1-0.2-2.1-0.1-3.2c0.6-3.4,3.2-6,6.5-6.7C27.5,7.1,27.9,7,28.3,7z"/>
	</g>
</g>
</svg>
