<svg id="Layer_2" xmlns="http://www.w3.org/2000/svg" viewBox="0 0 1914 2964"><style>.st0{fill:#E9E6D9;} .st1{fill:#FFFFFF;} .st2{fill:none;stroke:#F7F6F1;stroke-width:10;stroke-miterlimit:10;} .st3{fill:none;stroke:#DEC682;stroke-width:7;stroke-miterlimit:10;} .st4{fill:#FFFFFF;stroke:#DEC682;stroke-width:7;stroke-miterlimit:10;}</style><path class="st0" d="M0 0h1919.7v2960H0z"/><path class="st1" d="M1 87.4l122-46.9v19.3S400-77.1 942.9 100l-8.8 32-25-8.3-.5 5.4-82.3-24L779.2 261l129.9 43.6 24-63.7 34.3 15.2-17.2 56.9 124.5 40.2 15.7-31.4 29.4 10.3s-8.3 24.5 10.3 28.4 112.2 29.4 111.3 31.9c-1 2.5 7.4 6.9-5.4 11.3l176.5 54.4 12.7-22.1s245.5 121.2 374 186.8c0 0-10.9 15.3-10.9 20.8s-3.3 34.4-2.7 38.3c.5 3.8 62.3 64.5 62.8 70.5S1797 999.9 1797 999.9l9.8 23.5 37.7 7.1-3.8 62.8H1797l-25.7 17.5-48.1 230.6 18 25.1 160.1 33.3 13.6-13.7v1578H360.5s11.5-298.8 8.2-343c-3.3-44.3-9.8-135.5-9.8-135.5s-19.4-381-188.6-793.7-12.5-62.5-20.3-192.3-40.7-473.8-47-517.6-10.9-236 17.2-400.1 67.2-333 29.7-383-42.2-61-42.2-61L1 180.1V87.4z"/><path class="st1" d="M1914 633l-81.5-41.2-11.9 14.1-32.5-14.1-9.9 20.6-21.1-10.7 8.2-19.7-205-101.9s-.7 13.4-10.7 17.9l-8-4s16.4-8.5 12.1-16.8l-128.4-69.5 15.6-51.5-370.1-142 4.9-13.6-52-72.9s-16.5-22.9 24.3-18.5 122.5 58.4 155.6 63.7 67.6 41.3 99.2 41.8 112.3-2.4 112.3-2.4l157.1 59.8 25.3-2.4 17.5-42.3 299.1 79.3-.1 326.3z"/><path class="st2" d="M800.7 59.2l-70.6 226.6-48.9-8.9S360.5 401.3 305.5 580.7l48.1 827.7s3 17.1 6.7 19.9c0 0-28.6 44.6-27.7 73.2s1.9 47.9 1.9 47.9-1.4 26.3 19.7 49.3 9.9 39.4 101.4 62 69.5 4.7 103.3 102.4l61.9 625.5s-24.4 182.2 21.1 456.6l1.1 118.9"/><path class="st2" d="M642 2845.1s80-18.9 108.9-17.8l28-74.4.4-1.1.4-1.1s-11.1-147.7 4.4-209.9l33.8-13.1 37.3 7.1 19.5 13.7 15.5 45.2-10.8 25.2-28.7 7.4"/><path class="st2" d="M780 2751.6l50.3 19.9 36.3-19.9 20.6-33.3 6.3-85h48.1s2.1 188.8-35.6 326.8"/><path class="st2" d="M750.8 2827.4l97.7-6.9 16.8-11.6 22.1 12.6 22.5-3.4 23.9-21.5h24.4"/><path class="st2" d="M848.5 2820.5l18.8 11.9 20.1-10.9m22.5-3.4l20.2 12.3h24l87.6-3v-33.2l-83.5 2.4"/><path class="st2" d="M933.8 2960s54.5-287.7 23.2-373.8-130.6-113.8-139.3-179.8c-8.7-65.9-16.6-67.7-17-90.7S761.9 1757 761.9 1757l-13.8-239H605.6l-61.3-185.2h82.6l128.7 81.3 26.5-147.6H712l8.8-133.9h-90.1l-1.3 117.6-106.3 2.5-33.8-135.1-13.8-85.1 60.1-13.8 17.6-40 83.8 15 8.8-137.6 3.8-90.1 7.5-102.6 24.3-386.7"/><path class="st2" d="M591.8 443.4l8 159h60.9l10-159H534.2l-5.4-90.8"/><path class="st2" d="M534.2 443.4l2.6 159h63M323 539.7s82.5-25.2 211.3 0"/><path class="st2" d="M377.2 467.8s30.7 202 31.9 208.3c1.3 6.3 131.4 0 131.4 0l-3.8-73.7"/><path class="st2" d="M455 678.9l26.7 93.2h165m-171.3 260.6l-30.3-187.4m108 133.6l-224.8-6.4m16.4 282.4l178.3-2 21.3 80m155.2 45.9l12.4-112.2-82.6-16.2-2.5 82.5 4.8 185.2m-26 0s88.9 237.9 162 317.6c0 0 169.6 258.6 173.6 268.5"/><path class="st2" d="M558.9 1763.1l203-6.1 226.1 3.1m-342.7-144.4s-100 10.7-169.8 50m460.4 473.8l-145.9 14-191.8 6.4M854 2466.4l133.8-16s-4.3 15.7 34.1 126.2l22.8 11.4 4.1-133.4-61-4.1-21.1-279.3m-153.1 208.3l-192.8 9.1m423.9 199.4l-3 206.2 382-67.6m-382 100.8l381.6-69.6V2964m179.4-50.1l-179.4-.9m179.4 51s-9.9-61.9 21.5-103.1l81.6 103.1 77.4-196.2 26.6-67.4 104.1 51.1m.1 70l-130.7-53.7m30.2 196.2l100.5-97.7m-925.6-702.5l419 487.1 99.3 106.9"/><path class="st2" d="M1044.7 2616l413.6-113s-35 80.1-35 254.8l148-28.7-19.7-107.6 155.2-57.4 22.4 11.7 32.3 130.1-68.2 148.9-114.8-115.8-71.8 18.8 117.5 103.1m-579.5-155.5l340-81m510.2-244.9L1458.3 2503l48.4-331.9-256-11.2-105.4 158.3"/><path class="st2" d="M1914 2452.4s-30-74.7-16-136.6c3-13.4 8.1-26.2 16-37.5"/><path class="st2" d="M1048.8 2454.5l96.5-136.3 752.7-2.4"/><path class="st2" d="M1737.2 2424.1l13-195.3 48.2-41.2 115.6 8.2m-407.3-24.7l13.4-31.5 86.5 10.2 28.2-19.9h126.7l31 30 5.9 27.7"/><path class="st2" d="M1502.6 2199.5h96.9l7.1-49.7m143.6 79l-120.1-7.1-30.6-22.2m-603-49.9l254.2 10.3 168.1-489.3 47.3-137.7"/><path class="st2" d="M730.1 285.8l914.5 301.1 147 168.4 8.8 40.2-280.3 1344.1m241.4-9.7l12.5-436"/><path class="st2" d="M1919.7 1705.2l-304.8-20.2-196.1-14.4m495.2 326.1l-358.7-26.2-237.6-5.9s-39.9-28-43.6-38.2c-3.7-10.3-49.8-30-58.6-30s-134.8 28.5-182.4-33.7M1914 1562l-19.1-8.6-211.4-12.8"/><path class="st2" d="M1634 1593.5l78.4-93.1 201.6-6.3m0-90.4l-26.9 16.3-207.8-44.1m-50 239.8l-29.8-31.1v-57.8l-303 13.8s-31.4 2.5-52.8-8.8l-98.5 3.8s-48.7 40.8-144.7 15.7l-250.3 2.1H619.3m347.3 546.1l33.9-548.2m59.7 49.8s48.4-4.4 54.2-4.4 112 78.4 136.2 78.4c21.2 0 83.9-17.4 96.8 23.9 1.8 5.9 2.7 13 2.2 21.5-3.7 68.1-70 101.3-116.3 90.6s-155.5-34.2-164.3-34.2-45.4-21.2-46.2-57.2c-.7-35.8 37.4-118.6 37.4-118.6z"/><path class="st2" d="M1427.3 1534.7l-40.3 130.9-38.1 39.6m-28.1 79.4l47.4 33.3 545.8 28.5m-923.9-119.3l36.9 12.2m25 29.9l-25 37.8 6.1 55.7-55.4 60.8m7.4 242.4c-12.4 8.1-28.9 4.6-37-7.8l-12.2-18.7c-8.1-12.4-4.6-28.9 7.8-37s28.9-4.6 37 7.8l12.2 18.7c8.1 12.4 4.6 29-7.8 37zM1730 1132.8H720.7m293.8 85.4l-14 333.1m-252.3-33.2l252.4-6.5s24.7-23.9 128.8-9.9 523.2-19.7 523.2-19.7l261.4-19.3m-313.3-329.9l-134.6 400.1"/><path class="st2" d="M913.6 346.3s3.3 90.9 3.1 215.6c-.3 176.4-7.7 420.5-41.9 570.9L854 1413.6v138.9l9 207.5M777 301.3l-3.7 288.2 13.9 23.2-3.3 79.3 20.5 4-8.6 169.9-3.6 266.9-10.2 133.8"/><path class="st2" d="M667.2 499l249.4 4.6s234.3-17.9 275.9 0m-275.7 58.2H854l-23.2 25.7-43.6 25.2m129.6 89.9L804.4 696m-20.5-4l-128.2-13.1-115.2-2.8-15.8 169.2h-79.6l-36-169.2-97.9 2.8m9.7 166.4h203.8l120.9 11 262.2 12.3 502.9 42.9 124.3 64.8M336.8 1119.4l152.4-1.7 141.4 15.1 6.2-138.9 258.5 15.4 946.6 48.9"/><path class="st2" d="M1197.3 439.7l-14.1 190.2L916.5 616M1097 406.6l-7.6 218.4"/><path class="st2" d="M1030.5 497.2s5.4 27.5-10.2 46.7-30.3 57-19.6 76.5m548.7-64.8c-54.4 67.9-142.7 87.5-142.7 87.5l-223.5-13.2-52.8 502.9-34.2 289.9"/><path class="st2" d="M1438.8 519.2l-119.4 613.6-21.6 133.8"/><path class="st2" d="M1045.7 625l-32.3 507.8 1.1 85.5c135.3 5.4 498.2 95.6 598 138.5s-31.1 69.8-67.6 76.2c-36.5 6.4-690.9-19.3-690.9-19.3h-33.8L782 1447l-33.8 71.2"/><path class="st2" d="M912.6 776h123.5l133.8-19.4m-283.7 317.3l186.6 8.9 16.6-11.3 175.8 11.3 9.9 6.6h52.7"/><path class="st2" d="M1072.8 1082.8l16.6 15.8 171.9 4 13.8-13.2m369.5-502.5l-15.7 83.3-79.5 69.4-41.5 6 17.2 27.7-52.9 48.3-15.9-8.6-13.2 1.3-60.9 94.8m28.5 2.4l61.5-89.9m52.9-48.3l63.4 48.3-75.1 219.6m166.4-413.9l-35.2 40.2-22.8 62.7-33.3 91.4m204.1 11.3l-170.8-102.7m154.5 180.6l-200.1-53m-377.5-624L1443 327s24.5 8.6 19.8 25.1c-4.6 16.5-9.3 50.9 22.5 64.1 31.7 13.2 271.1 126.3 271.1 126.3s116.7 37.7 157.5 63.5"/><path class="st2" d="M1368.3 213.6l68.2 72.2 140.1 51.8 103.2-35.7 91.2 154.7 21.8-14.5 19.9 9.9-70.9 246.3"/><path class="st3" d="M729.6 287.9l-48.5-10.7c-2.4-.5-4.9-.2-7.1 1L484.5 378.3c-33.4 18.7-70.2 50.2-98.7 76-.5.4-.9.9-1.3 1.4l-52 65.5c-5.4 7.1-1.1 17.4 7.8 16.8l45.2-9.9h1.4l137.6 9.3c5.3.4 9.4 4.6 9.6 9.9l4.6 118.4c.2 6.1-4.9 11.1-11 10.7-31-1.9-120-5.8-207.2 6.2-5.3.7-9.2 5.5-8.9 10.8l2.4 40.5 1 16.7.6 10.3.5 8.4 3.8 64.6c.3 5.5 4.8 9.7 10.3 9.7h103.6c5.1 0 9.4 3.7 10.2 8.7l17.7 111.2c.8 4.8 4.7 8.4 9.5 8.7l70.7 4.9c7.3.5 11.8 8.3 8.6 14.9-6.8 13.9-23.3 33.9-62.4 39.9-5.6.9-9.5 6-8.7 11.6l8.5 59.2c.9 6.1-3.8 11.7-10 11.8l-130.6 3c-5.9.1-10.5 5.2-10.1 11.1l8.9 114.9c.4 5.4 5 9.6 10.4 9.5l166.1-2.1 105.1-2.3c.7 0 1.5 0 2.2.2l80.6 15.7c.7.1 1.3.2 2 .2h56.7c6.5 0 11.3 5.9 10.2 12.2l-22.1 120c-1.3 7.2-9.5 10.8-15.7 6.9l-98.8-62.4c-7-4.4-16.1.7-15.9 9l3.9 155.3c.1 5.8-4.5 10.6-10.4 10.6-7.3 0-12.4 7.4-9.6 14.2l29.3 72.8c2.3 5.7-.8 12.1-6.7 13.8l-141 37.9c-7.9 2.3-7.8 11.3-1.5 16.6 13.5 11.3 41.8 35.4 64.6 83.5 1.8 3.8 5.6 6.1 9.8 5.9l140.3-5.6c3.6-.1 7.1 1.6 9 4.6l50.3 76.5c1 1.5 1.5 3.2 1.7 4.9l22.1 299.7c.4 5.8 5.5 10.1 11.3 9.5l125.3-12.4c3.5-.3 6.9 1.1 9.1 3.8 5.1 6.4 15.5 18.2 27.2 25 2.9 1.7 4.8 4.8 5 8.1l20.6 272.6c0 .5.1 1 .2 1.5l26.9 116.2c.8 3.4 3.3 6.2 6.6 7.4l16.5 5.9c4.1 1.5 6.9 5.4 6.8 9.8l-.1 12c0 6.8 6.5 11.8 13.1 10l250-68.3c3.8-1.1 8 .2 10.6 3.2l55.3 64.2c5.1 5.9 2.1 15-5.4 16.8l-315.7 75.2c-4.6 1.1-7.8 5.1-7.9 9.8l-2.6 104.3c-.1 5.5-4.5 9.9-10 10.1l-77.9 2.7h-21.1c-1.9 0-3.8-.5-5.4-1.5l-14.3-8.7c-2.2-1.3-4.8-1.8-7.4-1.3l-19.7 3.9c-1.2.2-2.4.7-3.4 1.3l-9.3 5.7c-3.4 2.1-7.8 2.1-11.1-.2l-11.1-7.3c-1.8-1.2-4-1.8-6.2-1.7l-105.7 5.7c-.5 0-.9.1-1.4.2l-96 18.5"/><circle cy="289.4" cx="739.9" r="12.8" class="st3"/><circle cy="2843.4" cx="645.3" r="12.5" class="st4"/></svg>