<?xml version="1.0" encoding="utf-8"?>
<!-- Generator: Adobe Illustrator 21.0.2, SVG Export Plug-In . SVG Version: 6.00 Build 0)  -->
<svg version="1.1" xmlns="http://www.w3.org/2000/svg" xmlns:xlink="http://www.w3.org/1999/xlink" x="0px" y="0px"
	 viewBox="0 0 1914 2964" style="enable-background:new 0 0 1914 2964;" xml:space="preserve">
<style type="text/css">
	.st0{display:none;}
	.st1{display:inline;fill:#E9E6D9;}
	.st2{display:inline;fill:#FFFFFF;}
	.st3{display:inline;fill:none;stroke:#F7F6F1;stroke-width:10;stroke-miterlimit:10;}
	.st4{fill:none;stroke:#DEC682;stroke-width:7;stroke-miterlimit:10;}
	.st5{fill:#FFFFFF;stroke:#DEC682;stroke-width:7;stroke-miterlimit:10;}
</style>
<g id="Layer_2" class="st0">
	<rect class="st1" width="1919.7" height="2960"/>
	<path class="st2" d="M0,87.4l122-46.9v19.3c0,0,277-136.9,819.9,40.2l-8.8,32l-25-8.3l-0.5,5.4l-82.3-24L778.2,261l129.9,43.6
		l24-63.7l34.3,15.2L949.2,313l124.5,40.2l15.7-31.4l29.4,10.3c0,0-8.3,24.5,10.3,28.4s112.2,29.4,111.3,31.9
		c-1,2.5,7.4,6.9-5.4,11.3l176.5,54.4l12.7-22.1c0,0,245.5,121.2,374,186.8c0,0-10.9,15.3-10.9,20.8s-3.3,34.4-2.7,38.3
		c0.5,3.8,62.3,64.5,62.8,70.5S1796,999.9,1796,999.9l9.8,23.5l37.7,7.1l-3.8,62.8H1796l-25.7,17.5l-48.1,230.6l18,25.1l160.1,33.3
		l13.6-13.7v1578H359.5c0,0,11.5-298.8,8.2-343c-3.3-44.3-9.8-135.5-9.8-135.5s-19.4-381-188.6-793.7c0,0-12.5-62.5-20.3-192.3
		s-40.7-473.8-47-517.6s-10.9-236,17.2-400.1s67.2-333,29.7-383s-42.2-61-42.2-61L0,180.1V87.4z"/>
	<path class="st2" d="M1914,633l-81.5-41.2l-11.9,14.1l-32.5-14.1l-9.9,20.6l-21.1-10.7l8.2-19.7l-205-101.9c0,0-0.7,13.4-10.7,17.9
		l-8-4c0,0,16.4-8.5,12.1-16.8l-128.4-69.5l15.6-51.5l-370.1-142l4.9-13.6l-52-72.9c0,0-16.5-22.9,24.3-18.5s122.5,58.4,155.6,63.7
		s67.6,41.3,99.2,41.8s112.3-2.4,112.3-2.4l157.1,59.8l25.3-2.4l17.5-42.3l299.1,79.3L1914,633L1914,633z"/>
	<path class="st3" d="M800.7,59.2l-70.6,226.6l-48.9-8.9c0,0-320.7,124.4-375.7,303.8l48.1,827.7c0,0,3,17.1,6.7,19.9
		c0,0-28.6,44.6-27.7,73.2s1.9,47.9,1.9,47.9s-1.4,26.3,19.7,49.3s9.9,39.4,101.4,62c0,0,69.5,4.7,103.3,102.4l61.9,625.5
		c0,0-24.4,182.2,21.1,456.6l1.1,118.9"/>
	<path class="st3" d="M642,2845.1c0,0,80-18.9,108.9-17.8l28-74.4l0.4-1.1l0.4-1.1c0,0-11.1-147.7,4.4-209.9l33.8-13.1l37.3,7.1
		l19.5,13.7l15.5,45.2l-10.8,25.2l-28.7,7.4"/>
	<path class="st3" d="M780,2751.6l50.3,19.9l36.3-19.9l20.6-33.3l6.3-85h48.1c0,0,2.1,188.8-35.6,326.8"/>
	<polyline class="st3" points="750.8,2827.4 848.5,2820.5 865.3,2808.9 887.4,2821.5 909.9,2818.1 933.8,2796.6 958.2,2796.6 	"/>
	<polyline class="st3" points="848.5,2820.5 867.3,2832.4 887.4,2821.5 	"/>
	<polyline class="st3" points="909.9,2818.1 930.1,2830.4 954.1,2830.4 1041.7,2827.4 1041.7,2794.2 958.2,2796.6 	"/>
	<path class="st3" d="M933.8,2960c0,0,54.5-287.7,23.2-373.8s-130.6-113.8-139.3-179.8c-8.7-65.9-16.6-67.7-17-90.7
		S761.9,1757,761.9,1757l-13.8-239H605.6l-61.3-185.2h82.6l128.7,81.3l26.5-147.6H712l8.8-133.9h-90.1l-1.3,117.6l-106.3,2.5
		l-33.8-135.1l-13.8-85.1l60.1-13.8l17.6-40l83.8,15l8.8-137.6l3.8-90.1l7.5-102.6l24.3-386.7"/>
	<polyline class="st3" points="591.8,443.4 599.8,602.4 660.7,602.4 670.7,443.4 534.2,443.4 528.8,352.6 	"/>
	<polyline class="st3" points="534.2,443.4 536.8,602.4 599.8,602.4 	"/>
	<path class="st3" d="M323,539.7c0,0,82.5-25.2,211.3,0"/>
	<path class="st3" d="M377.2,467.8c0,0,30.7,202,31.9,208.3c1.3,6.3,131.4,0,131.4,0l-3.8-73.7"/>
	<polyline class="st3" points="455,678.9 481.7,772.1 646.7,772.1 	"/>
	<line class="st3" x1="475.4" y1="1032.7" x2="445.1" y2="845.3"/>
	<line class="st3" x1="553.1" y1="978.9" x2="328.3" y2="972.5"/>
	<polyline class="st3" points="344.7,1254.9 523,1252.9 544.3,1332.9 	"/>
	<polyline class="st3" points="699.5,1378.8 711.9,1266.6 629.3,1250.4 626.8,1332.9 631.6,1518.1 	"/>
	<path class="st3" d="M605.6,1518.1c0,0,88.9,237.9,162,317.6c0,0,169.6,258.6,173.6,268.5"/>
	<polyline class="st3" points="558.9,1763.1 761.9,1757 988,1760.1 	"/>
	<path class="st3" d="M645.3,1615.7c0,0-100,10.7-169.8,50"/>
	<polyline class="st3" points="935.9,2139.5 790,2153.5 598.2,2159.9 	"/>
	<path class="st3" d="M854,2466.4l133.8-16c0,0-4.3,15.7,34.1,126.2l22.8,11.4l4.1-133.4l-61-4.1l-21.1-279.3"/>
	<line class="st3" x1="813.6" y1="2379.5" x2="620.8" y2="2388.6"/>
	<polyline class="st3" points="1044.7,2588 1041.7,2794.2 1423.7,2726.6 	"/>
	<polyline class="st3" points="1041.7,2827.4 1423.3,2757.8 1423.3,2913 1423.3,2964 	"/>
	<line class="st3" x1="1602.7" y1="2913.9" x2="1423.3" y2="2913"/>
	<path class="st3" d="M1602.7,2964c0,0-9.9-61.9,21.5-103.1l81.6,103.1l77.4-196.2l26.6-67.4l104.1,51.1"/>
	<line class="st3" x1="1914" y1="2821.5" x2="1783.3" y2="2767.8"/>
	<line class="st3" x1="1813.5" y1="2964" x2="1914" y2="2866.3"/>
	<polyline class="st3" points="988.4,2163.8 1407.4,2650.9 1506.7,2757.8 	"/>
	<path class="st3" d="M1044.7,2616l413.6-113c0,0-35,80.1-35,254.8l148-28.7l-19.7-107.6l155.2-57.4l22.4,11.7l32.3,130.1
		l-68.2,148.9L1578.5,2739l-71.8,18.8l117.5,103.1"/>
	<line class="st3" x1="1044.7" y1="2705.4" x2="1384.7" y2="2624.4"/>
	<polyline class="st3" points="1894.9,2379.5 1458.3,2503 1506.7,2171.1 1250.7,2159.9 1145.3,2318.2 	"/>
	<path class="st3" d="M1914,2452.4c0,0-30-74.7-16-136.6c3-13.4,8.1-26.2,16-37.5"/>
	<polyline class="st3" points="1048.8,2454.5 1145.3,2318.2 1898,2315.8 	"/>
	<polyline class="st3" points="1737.2,2424.1 1750.2,2228.8 1798.4,2187.6 1914,2195.8 	"/>
	<polyline class="st3" points="1506.7,2171.1 1520.1,2139.6 1606.6,2149.8 1634.8,2129.9 1761.5,2129.9 1792.5,2159.9 
		1798.4,2187.6 	"/>
	<polyline class="st3" points="1502.6,2199.5 1599.5,2199.5 1606.6,2149.8 	"/>
	<polyline class="st3" points="1750.2,2228.8 1630.1,2221.7 1599.5,2199.5 	"/>
	<polyline class="st3" points="996.5,2149.6 1250.7,2159.9 1418.8,1670.6 1466.1,1532.9 	"/>
	<polyline class="st3" points="730.1,285.8 1644.6,586.9 1791.6,755.3 1800.4,795.5 1520.1,2139.6 	"/>
	<line class="st3" x1="1761.5" y1="2129.9" x2="1774" y2="1693.9"/>
	<polyline class="st3" points="1919.7,1705.2 1614.9,1685 1418.8,1670.6 	"/>
	<path class="st3" d="M1914,1996.7l-358.7-26.2l-237.6-5.9c0,0-39.9-28-43.6-38.2c-3.7-10.3-49.8-30-58.6-30s-134.8,28.5-182.4-33.7
		"/>
	<polyline class="st3" points="1914,1562 1894.9,1553.4 1683.5,1540.6 	"/>
	<polyline class="st3" points="1634,1593.5 1712.4,1500.4 1914,1494.1 	"/>
	<polyline class="st3" points="1914,1403.7 1887.1,1420 1679.3,1375.9 	"/>
	<path class="st3" d="M1629.3,1615.7l-29.8-31.1v-57.8l-303,13.8c0,0-31.4,2.5-52.8-8.8l-98.5,3.8c0,0-48.7,40.8-144.7,15.7l0,0
		l-250.3,2.1H619.3"/>
	<line class="st3" x1="966.6" y1="2099.5" x2="1000.5" y2="1551.3"/>
	<path class="st3" d="M1060.2,1601.1c0,0,48.4-4.4,54.2-4.4s112,78.4,136.2,78.4c21.2,0,83.9-17.4,96.8,23.9
		c1.8,5.9,2.7,13,2.2,21.5c-3.7,68.1-70,101.3-116.3,90.6c-46.3-10.7-155.5-34.2-164.3-34.2s-45.4-21.2-46.2-57.2
		C1022.1,1683.9,1060.2,1601.1,1060.2,1601.1z"/>
	<polyline class="st3" points="1427.3,1534.7 1387,1665.6 1348.9,1705.2 	"/>
	<polyline class="st3" points="1320.8,1784.6 1368.2,1817.9 1914,1846.4 	"/>
	<line class="st3" x1="990.1" y1="1727.1" x2="1027" y2="1739.3"/>
	<polyline class="st3" points="1052,1769.2 1027,1807 1033.1,1862.7 977.7,1923.5 	"/>
	<path class="st3" d="M985.1,2165.9L985.1,2165.9c-12.4,8.1-28.9,4.6-37-7.8l-12.2-18.7c-8.1-12.4-4.6-28.9,7.8-37l0,0
		c12.4-8.1,28.9-4.6,37,7.8l12.2,18.7C1001,2141.3,997.5,2157.9,985.1,2165.9z"/>
	<line class="st3" x1="1730" y1="1132.8" x2="720.7" y2="1132.8"/>
	<line class="st3" x1="1014.5" y1="1218.2" x2="1000.5" y2="1551.3"/>
	<path class="st3" d="M748.2,1518.1l252.4-6.5c0,0,24.7-23.9,128.8-9.9c104.1,14,523.2-19.7,523.2-19.7l261.4-19.3"/>
	<line class="st3" x1="1600.7" y1="1132.8" x2="1466.1" y2="1532.9"/>
	<path class="st3" d="M913.6,346.3c0,0,3.3,90.9,3.1,215.6c-0.3,176.4-7.7,420.5-41.9,570.9L854,1413.6v138.9l9,207.5"/>
	<polyline class="st3" points="777,301.3 773.3,589.5 787.2,612.7 783.9,692 804.4,696 795.8,865.9 792.2,1132.8 782,1266.6 	"/>
	<path class="st3" d="M667.2,499l249.4,4.6c0,0,234.3-17.9,275.9,0"/>
	<polyline class="st3" points="916.8,561.8 854,561.8 830.8,587.5 787.2,612.7 	"/>
	<line class="st3" x1="916.8" y1="702.6" x2="804.4" y2="696"/>
	<polyline class="st3" points="783.9,692 655.7,678.9 540.5,676.1 524.7,845.3 445.1,845.3 409.1,676.1 311.2,678.9 	"/>
	<polyline class="st3" points="320.9,845.3 524.7,845.3 645.6,856.3 907.8,868.6 1410.7,911.5 1535,976.3 	"/>
	<polyline class="st3" points="336.8,1119.4 489.2,1117.7 630.6,1132.8 636.8,993.9 895.3,1009.3 1841.9,1058.2 	"/>
	<polyline class="st3" points="1197.3,439.7 1183.2,629.9 916.5,616 	"/>
	<line class="st3" x1="1097" y1="406.6" x2="1089.4" y2="625"/>
	<path class="st3" d="M1030.5,497.2c0,0,5.4,27.5-10.2,46.7c-15.6,19.2-30.3,57-19.6,76.5"/>
	<path class="st3" d="M1549.4,555.6c-54.4,67.9-142.7,87.5-142.7,87.5l-223.5-13.2l-52.8,502.9l-34.2,289.9"/>
	<polyline class="st3" points="1438.8,519.2 1319.4,1132.8 1297.8,1266.6 	"/>
	<path class="st3" d="M1045.7,625l-32.3,507.8l1.1,85.5c135.3,5.4,498.2,95.6,598,138.5s-31.1,69.8-67.6,76.2
		c-36.5,6.4-690.9-19.3-690.9-19.3h-33.8L782,1447l-33.8,71.2l0,0"/>
	<polyline class="st3" points="912.6,776 1036.1,776 1169.9,756.6 	"/>
	<polyline class="st3" points="886.2,1073.9 1072.8,1082.8 1089.4,1071.5 1265.2,1082.8 1275.1,1089.4 1327.8,1089.4 	"/>
	<polyline class="st3" points="1072.8,1082.8 1089.4,1098.6 1261.3,1102.6 1275.1,1089.4 	"/>
	<polyline class="st3" points="1644.6,586.9 1628.9,670.2 1549.4,739.6 1507.9,745.6 1525.1,773.3 1472.2,821.6 1456.3,813 
		1443.1,814.3 1382.2,909.1 	"/>
	<line class="st3" x1="1410.7" y1="911.5" x2="1472.2" y2="821.6"/>
	<polyline class="st3" points="1525.1,773.3 1588.5,821.6 1513.4,1041.2 	"/>
	<polyline class="st3" points="1679.8,627.3 1644.6,667.5 1621.8,730.2 1588.5,821.6 	"/>
	<line class="st3" x1="1792.6" y1="832.9" x2="1621.8" y2="730.2"/>
	<line class="st3" x1="1776.3" y1="910.8" x2="1576.2" y2="857.8"/>
	<path class="st3" d="M1198.7,233.8L1443,327c0,0,24.5,8.6,19.8,25.1c-4.6,16.5-9.3,50.9,22.5,64.1
		c31.7,13.2,271.1,126.3,271.1,126.3s116.7,37.7,157.5,63.5"/>
	<polyline class="st3" points="1368.3,213.6 1436.5,285.8 1576.6,337.6 1679.8,301.9 1771,456.6 1792.8,442.1 1812.7,452 
		1741.8,698.3 	"/>
</g>
<g id="Layer_3" class="st0">
	
		<image style="display:inline;overflow:visible;" width="934" height="1450" xlink:href="../../../../../../../Documents/screenshots/Screen Shot 2017-03-29 at 10.53.35.png"  transform="matrix(2.0387 0 0 2.0387 4.8807 1.9479)">
	</image>
</g>
<g id="Layer_4">
	<g>
		<path class="st4" d="M730.1,289.7L681.6,279c-2.4-0.5-4.9-0.2-7.1,1L485,380.1c-33.4,18.7-70.2,50.2-98.7,76
			c-0.5,0.4-0.9,0.9-1.3,1.4l-52,65.5c-5.4,7.1-1.1,17.4,7.8,16.8l45.2-9.9c0.5,0,1,0,1.4,0l137.6,9.3c5.3,0.4,9.4,4.6,9.6,9.9
			l4.6,118.4c0.2,6.1-4.9,11.1-11,10.7c-31-1.9-120-5.8-207.2,6.2c-5.3,0.7-9.2,5.5-8.9,10.8l2.4,40.5l1,16.7l0.6,10.3l0.5,8.4
			l3.8,64.6c0.3,5.5,4.8,9.7,10.3,9.7h103.6c5.1,0,9.4,3.7,10.2,8.7l17.7,111.2c0.8,4.8,4.7,8.4,9.5,8.7l70.7,4.9
			c7.3,0.5,11.8,8.3,8.6,14.9c-6.8,13.9-23.3,33.9-62.4,39.9c-5.6,0.9-9.5,6-8.7,11.6l8.5,59.2c0.9,6.1-3.8,11.7-10,11.8l-130.6,3
			c-5.9,0.1-10.5,5.2-10.1,11.1l8.9,114.9c0.4,5.4,5,9.6,10.4,9.5l166.1-2.1l105.1-2.3c0.7,0,1.5,0,2.2,0.2l80.6,15.7
			c0.7,0.1,1.3,0.2,2,0.2h56.7c6.5,0,11.3,5.9,10.2,12.2l-22.1,120c-1.3,7.2-9.5,10.8-15.7,6.9l-98.8-62.4c-7-4.4-16.1,0.7-15.9,9
			l3.9,155.3c0.1,5.8-4.5,10.6-10.4,10.6h0c-7.3,0-12.4,7.4-9.6,14.2l29.3,72.8c2.3,5.7-0.8,12.1-6.7,13.8l-141,37.9
			c-7.9,2.3-7.8,11.3-1.5,16.6c13.5,11.3,41.8,35.4,64.6,83.5c1.8,3.8,5.6,6.1,9.8,5.9l140.3-5.6c3.6-0.1,7.1,1.6,9,4.6l50.3,76.5
			c1,1.5,1.5,3.2,1.7,4.9l22.1,299.7c0.4,5.8,5.5,10.1,11.3,9.5l125.3-12.4c3.5-0.3,6.9,1.1,9.1,3.8c5.1,6.4,15.5,18.2,27.2,25
			c2.9,1.7,4.8,4.8,5,8.1l20.6,272.6c0,0.5,0.1,1,0.2,1.5l26.9,116.2c0.8,3.4,3.3,6.2,6.6,7.4l16.5,5.9c4.1,1.5,6.9,5.4,6.8,9.8
			l-0.1,12c0,6.8,6.5,11.8,13.1,10l250-68.3c3.8-1.1,8,0.2,10.6,3.2l55.3,64.2c5.1,5.9,2.1,15-5.4,16.8l-315.7,75.2
			c-4.6,1.1-7.8,5.1-7.9,9.8l-2.6,104.3c-0.1,5.5-4.5,9.9-10,10.1l-77.9,2.7H933c-1.9,0-3.8-0.5-5.4-1.5l-14.3-8.7
			c-2.2-1.3-4.8-1.8-7.4-1.3l-19.7,3.9c-1.2,0.2-2.4,0.7-3.4,1.3l-9.3,5.7c-3.4,2.1-7.8,2.1-11.1-0.2l-11.1-7.3
			c-1.8-1.2-4-1.8-6.2-1.7l-105.7,5.7c-0.5,0-0.9,0.1-1.4,0.2l-96,18.5"/>
		<circle class="st4" cx="740.4" cy="291.2" r="12.8"/>
		<circle class="st5" cx="316" cy="760.7" r="16.3"/>
		<circle class="st5" cx="529.2" cy="1712" r="15.1"/>
		<circle class="st5" cx="645.8" cy="2845.1" r="12.5"/>
	</g>
</g>
</svg>
