<?xml version="1.0" encoding="utf-8"?>
<!-- Generator: Adobe Illustrator 21.0.2, SVG Export Plug-In . SVG Version: 6.00 Build 0)  -->
<svg version="1.1" id="Layer_2" xmlns="http://www.w3.org/2000/svg" xmlns:xlink="http://www.w3.org/1999/xlink" x="0px" y="0px"
	 viewBox="0 0 213 388" style="enable-background:new 0 0 213 388;" xml:space="preserve">
<style type="text/css">
	.st0{fill:#5E1D34;stroke:#FFFFFF;stroke-width:2;stroke-miterlimit:10;}
	.st1{fill:#5E1D34;stroke:#FFFFFF;stroke-width:3;stroke-miterlimit:10;}
	.st2{fill:#FFFFFF;stroke:#5E1D34;stroke-width:2;stroke-miterlimit:10;}
	.st3{fill:#5E1D34;stroke:#5E1D34;stroke-width:2;stroke-miterlimit:10;}
	.st4{fill:none;stroke:#FFFFFF;stroke-width:2;stroke-miterlimit:10;}
</style>
<circle class="st0" cx="152" cy="87" r="61"/>
<circle class="st1" cx="152" cy="87" r="26"/>
<path class="st2" d="M158.5,50.5l-53,119l10,97c0,0,4,26-60,67l9,17c0,0,73-42,69-84s-9-94-9-94l51-116L158.5,50.5z"/>
<circle class="st0" cx="152" cy="87" r="17"/>
<path class="st2" d="M158,38l16.2-34.4c0.4-0.9,1.5-1.3,2.4-1l26.9,10.4c1.3,0.5,1.9,2,1.2,3.3L188,50"/>
<path class="st2" d="M158.9,49.5l-1.7-10.2c-0.1-0.6,0.5-1.1,1-0.9l29.9,10.9c0.7,0.2,0.7,1.2,0,1.4l-11.9,5.1
	c-0.2,0.1-0.4,0.1-0.6,0l-16.3-5.7C159.2,50.1,159,49.8,158.9,49.5z"/>
<polygon class="st3" points="56,334 54,330 2,363 16,386 67,353 "/>
<line class="st4" x1="13" y1="366" x2="26" y2="358"/>
<line class="st4" x1="18" y1="374" x2="31" y2="366"/>
</svg>
