<svg xmlns="http://www.w3.org/2000/svg" viewBox="0 0 534 169.3"><title>nostalgie</title><path d="M477.6 38l54-2-.3 18.7h-27l-.7 26.8 18.8.6v20l-20 1-1.4 34 33 1v19h-57l1-118m-31.5 14l21.4 1 2 103h-27l3-104m12-43c26 .5 24 38 1 38-28-.4-25-38-1-38m-54 20c17 0 24 5 30 24.7l-17 20-2-1s-2.6-13.5-3-18-4-5-6-5-6.7 2-6.7 5.7v71c0 3.6 2 7.3 5 7.3s6-1.4 7-6.4 2-23 2-23l-10-.5v-13l34.7-6.2 1 .2-4 84h-1L422 148s1.5-2-1.2-.2-11.7 7-20.2 7c-12.6 0-27.3-5.2-27.3-29.7l.2-62c0-16 10.2-33 30.5-33m-54.5 5l-25.7 1 .4 120 46.7 1v-19h-23l1-102m-67 71l3-30h1l3 30h-8zm14-74h-20l-25 122h23l5-29h12l3 29h27L296.6 33m-90 1h61v19H249v101.5h-26l2.3-101.7-18.8-.3.2-18.7M175.3 31c20.2 0 30 10.2 30 25 0 0-8 10-12 13.6-.8 1-3 0-3 0-1-7.3-2.2-18.5-11.5-18.5-6.6 0-7.4 6-7.4 9s4.4 13 16 21 26 21 26 42-15 37-38 37-32.6-22-32.6-29l15.2-18h2c3 9 4.2 25 14 25s12.5-6 12.5-10c0-15-9-17.2-25.4-31.3s-16-26-16-37 8-27 31-27m-62 95c0 3.7-2 8.8-5 8.8s-6.6-2.5-6.6-8.4l1-69s.8-7 5.4-7 6 3.4 6 6v69zM109 31c-28.4 0-33 20.2-33 30.2l-.4 66C75 142.7 86.6 157 109 157s31.6-16.3 31.6-27.6.4-50 .4-71.7S118 31 108.3 31M4 28.6l18-5.2 25 49.8 1.3-64.6L70.8 0l4.6.2-9.4 162h-1.6l-36-70.5-.5 61.6-28-.5 4-124"/></svg>