<?xml version="1.0" encoding="utf-8"?>
<!-- Generator: Adobe Illustrator 21.0.2, SVG Export Plug-In . SVG Version: 6.00 Build 0)  -->
<svg version="1.1" id="Layer_1" xmlns="http://www.w3.org/2000/svg" xmlns:xlink="http://www.w3.org/1999/xlink" x="0px" y="0px"
	 viewBox="0 0 534 169.3" style="enable-background:new 0 0 534 169.3;" xml:space="preserve">
<title>nostalgie</title>
<g id="Layer_2">
	<g id="svg2">
		<path id="path7070" d="M477.6,38.1l53.9-2.1l-0.2,18.7l-27.1,0.1l-0.6,26.7l18.8,0.6l-0.1,19.3l-19.9,0.5l-1.3,34.6l32.9,0.5
			l-0.2,19.5l-56.9,0.1L477.6,38.1"/>
		<path id="path7072" d="M446.2,52l21.4,0.5l2.1,103.1h-26.6L446.2,52"/>
		<path id="path7074" d="M458.6,9c26.1,0.4,24.2,38,1.1,37.8C432,46.5,434.6,8.7,458.6,9"/>
		<path id="path7076" d="M404,29.3c17.7,0,24.7,5.1,30.2,24.7l-17.2,19.8l-1.4-0.9c0,0-2.3-13.5-2.8-18.1s-3.9-5.1-6.2-5.1
			s-6.5,2.1-6.5,5.9v71.5c0,3.4,1.9,7.1,4.4,7.1s5.5-1.4,6.7-6.4s1.8-22.9,1.8-22.9l-9.9-0.5l-0.2-13l34.8-6.2l0.9,0.2l-4.6,83.9
			h-1.1l-11-21.3c0,0,1.6-2.1-1.1-0.2s-11.7,6.9-20.2,6.9c-12.6,0-27.3-5.1-27.3-29.6s0.2-62.1,0.2-62.1
			C373.5,46.5,383.7,29.3,404,29.3"/>
		<path id="path7078" d="M349.5,34.7L323.8,35l0.4,119.5l46.7,0.6V136h-22.9L349.5,34.7"/>
		<path id="path7080" d="M282.2,105.9l3.7-29.7l1.2-0.1l2.8,29.9L282.2,105.9z M296.6,32.8h-19.8l-25,121.8h23.1l5-28.8h11.5
			l3.1,28.8h26.9L296.6,32.8"/>
		<path id="path7082" d="M206.7,33.8l60.9,0V53h-18.5v101.5H223l2.3-101.7l-18.8-0.3L206.7,33.8"/>
		<path id="path7084" d="M175.3,31.1c20.2,0,30.1,10.1,30.1,25c0,0-8.2,9.9-12,13.5c-0.9,0.9-3.2,0-3.2,0
			c-0.9-7.3-2.1-18.5-11.4-18.5c-6.6,0-7.4,5.2-7.4,8.9s4.4,12.6,16.1,20.7s25.9,20.4,25.9,41.7s-15.1,36.5-38,36.5
			s-32.6-22-32.6-28.9l15.2-17.4h2.1c3,8.9,4.1,24.6,13.8,24.6s12.6-6.6,12.6-10.5c0-15.4-9-17.6-25.4-31.7s-16.3-26.1-16.3-37.1
			S152.9,31.1,175.3,31.1"/>
		<path id="path7086" d="M114,126.8c0,3.6-2,8.7-5.7,8.7s-6.7-2.6-6.7-8.5s0.9-69,0.9-69s0.9-6.8,5.5-6.8s6,3.2,6,5.8L114,126.8
			L114,126.8z M108.2,30.5c-28.2,0-32.7,20.3-32.7,30.2s-0.5,55.5-0.5,66c0,15.6,11.5,29.8,33.7,29.8s31.6-16.2,31.6-27.5
			c0,0,0.4-50,0.4-71.7S118,30.5,108.2,30.5"/>
		<path id="path7088" d="M3.9,28.8l18.3-5.3L47,73.3l1.3-64.6L70.8,0l4.6,0.2L66,162.3l-1.6-0.2l-36-70.4l-0.5,61.6L0,152.8
			L3.9,28.8"/>
	</g>
</g>
</svg>
